<?xml version="1.0" encoding="utf-8"?>
<!-- Generator: Adobe Illustrator 22.1.0, SVG Export Plug-In . SVG Version: 6.00 Build 0)  -->
<svg version="1.1" id="Слой_1" xmlns="http://www.w3.org/2000/svg" xmlns:xlink="http://www.w3.org/1999/xlink" x="0px" y="0px"
	 viewBox="0 0 580.677124 219.2789307" style="enable-background:new 0 0 580.677124 219.2789307;" xml:space="preserve">
<style type="text/css">
	.st0{fill:#ED1C24;}
	.st1{fill:#FFFFFF;}
</style>
<g>
	<rect class="st0" width="580.677124" height="219.2789307"/>
	<g>
		<path class="st1" d="M125.8659744,160.3644867h-4.7402344l7.7182693,15.0644531
			c-0.3911133,1.1835938-0.7993164,1.9541016-1.2241287,2.3125c-0.4248047,0.3574219-1.1289062,0.5361328-2.1123047,0.5361328
			c-0.4868164,0-1.0307617-0.0185547-1.6323242-0.0566406v3.1503906c0.706543,0.1621094,1.6850586,0.2431641,2.9355469,0.2431641
			c1.2695389,0,2.3051834-0.4511719,3.1069412-1.3535156c0.8022461-0.9013672,1.5898438-2.2167969,2.3632812-3.9443359
			l7.0878906-15.9521484h-4.4248047l-4.1811523,10.8974609L125.8659744,160.3644867z"/>
		<path class="st1" d="M326.6208496,143.5519867c29.7763672,0,59.2197266,0,88.7983398,0c0-10.1508789,0-19.9782715,0-30.0942383
			c-1.7255859,0-3.2670898,0.0551758-4.7993164-0.0400391c-0.3671875-0.0229492-0.9355469-0.5083008-0.9912109-0.8493652
			c-0.0610352-0.3774414,0.2524414-1.0073242,0.59375-1.2189941c0.7172852-0.4445801,1.6054688-0.6069336,2.3422852-1.0275879
			c2.487793-1.4211426,3.9819336-3.4824219,3.9047852-6.4685059c-0.0737305-2.8769531-1.6201172-4.8188477-4.0258789-6.1445312
			c-4.0698242-2.2424316-9.144043-1.1972656-12.0805664,2.4189453c-0.3486328,0.4296875-0.7719727,0.7988281-1.1606445,1.1960449
			c1.0239258-4.2102051,3.7983398-6.4108887,7.7119141-7.046875c0-7.0822754,0-13.9223633,0-21.0610352
			c-6.8833008,0-13.6235352,0-20.6132812,0c0-10.8237305,0-21.3493652,0-31.9306641
			c-0.9663086-0.1506348-1.6894531-0.2634277-2.440918-0.3803711c-0.0849609-1.0915527-0.1557617-2.0058594-0.2333984-3.0026855
			c-6.1953125,0-12.2290039,0-18.2749023,0c-0.0981445,1.1103516-0.1791992,2.03125-0.2573242,2.9262695
			c-0.90625,0.2182617-1.6943359,0.4084473-2.590332,0.6245117c0,0.9082031,0,1.6750488,0,2.4421387
			c-0.0024414,21.7355957-0.0063477,43.4714355-0.0063477,65.2072754c0,4.0258789-0.0014648,4.0002441-3.7407227,5.1943359
			c-11.1347656,3.5559082-21.6069336,8.3669434-30.3911133,16.2963867c-0.7197266,0.6499023-1.621582,1.5742188-1.6665039,2.4125977
			C326.5119629,136.488266,326.6208496,139.986557,326.6208496,143.5519867z M402.1931152,76.127182
			c0.8452148,0,1.5092773,0,2.3657227,0c0,2.1320801,0,4.2011719,0,6.4020996c-0.7719727,0-1.5024414,0-2.3657227,0
			C402.1931152,80.4418793,402.1931152,78.4284515,402.1931152,76.127182z M397.0002441,76.1603851
			c0.0078125,0,0.0141602,0,0.0219727,0V76.127182h2.3657227v6.4020996h-2.3657227v-0.0039062
			c-0.0078125,0-0.0141602,0.0004883-0.0219727,0.0002441C397.0002441,80.5141449,397.0002441,78.4955902,397.0002441,76.1603851z
			 M391.7526855,76.2236176c0.7348633,0,1.4257812,0,2.2407227,0c0,2.0773926,0,4.0783691,0,6.2541504
			c-0.7348633,0-1.4267578,0-2.2407227,0C391.7526855,80.4030609,391.7526855,78.4020844,391.7526855,76.2236176z
			 M386.4338379,76.127182c0,0,1.2988281-0.0244141,1.8251953,0h0.5405273v0.0253906
			c0.0063477,0.0002441,0.0117188,0.0004883,0.0175781,0.0007324c0,2.1748047,0,4.1853027,0,6.1833496
			c-0.0063477,0.0009766-0.0112305,0.0014648-0.0175781,0.0026855v0.1899414h-2.3657227V76.127182z M383.5637207,44.6952972
			c0,2.1530762,0.0029297,4.1564941,0.0029297,6.392334c-0.7436523,0-1.5258789,0-2.4355469,0
			c0-2.1960449-0.0024414-4.0930176-0.0024414-6.392334C381.927002,44.6952972,383.5515137,44.6945648,383.5637207,44.6952972z
			 M383.588623,55.2350922c0,2.3850098,0,4.0966797,0,6.3166504c-0.0039062,0.0002441-0.0073242,0.0004883-0.0112305,0.0007324
			v0.1206055h-2.0200195c-0.125,0.0075684-0.2456055,0.0146484-0.3779297,0.0224609
			c0-2.2636719-0.015625-4.1665039-0.015625-6.4326172C381.8806152,55.2150726,382.6208496,55.3000336,383.588623,55.2350922z
			 M378.3024902,44.6955414c0,2.2539062,0.0029297,4.1533203,0.0029297,6.3920898c-0.7890625,0-1.5673828,0-2.5039062,0
			c0-2.2270508-0.0029297-4.1862793-0.0029297-6.392334C375.8054199,44.6950531,377.6911621,44.6952972,378.3024902,44.6955414z
			 M378.2780762,55.2629242c0,2.1669922-0.012207,4.0166016-0.012207,6.2871094c0,0-0.0043945,0.0004883-0.0068359,0.0004883
			v0.1225586h-2.2368164c-0.0512695,0.0029297-0.0947266,0.0053711-0.1474609,0.0080566
			c0-2.2712402,0.012207-4.1218262,0.012207-6.4182129C376.7907715,55.2629242,377.4587402,55.2629242,378.2780762,55.2629242z
			 M370.7033691,44.6952972h2.3911133v6.392334h-2.3911133V44.6952972z M370.6481934,55.271225
			c0,0,1.4487305-0.0083008,2.3837891-0.0136719c0,2.2416992,0,4.0185547,0,6.3435059c-0.0063477,0-0.0117188,0-0.0180664,0
			v0.0720215h-2.3657227V55.271225z M365.4455566,44.6952972c0.0053711,0,2.4067383,0,2.4067383,0v6.392334
			c0,0-1.7050781-0.0153809-2.4101562,0C365.4421387,48.8718109,365.4455566,46.9645844,365.4455566,44.6952972z
			 M365.4592285,61.5734711c0-2.2148438-0.0073242-3.9970703-0.0073242-6.3105469
			c0.7729492,0,2.3911133,0.0083008,2.3911133,0.0083008v6.4018555h-2.3657227v-0.1010742
			C365.4709473,61.5724945,365.4655762,61.5729828,365.4592285,61.5734711z M347.1496582,124.1452484
			c0.1210938-0.684082,1.2915039-1.5942383,2.1264648-2.0168457c7.3242188-3.704834,15.1298828-5.9931641,23.137207-7.6506348
			c10.7207031-2.2192383,21.5756836-3.1130371,32.5029297-3.1503906c2.7436523-0.0092773,1.4672852,1.9819336,1.2700195,1.9838867
			c-9.6074219,0.1018066-19.0073242,0.6625977-28.2236328,2.1726074c-10.1264648,1.6594238-20.03125,4.4648438-29.7441406,9.0671387
			C347.263916,124.9621429,347.1247559,124.4931488,347.1496582,124.1452484z"/>
		<path class="st1" d="M118.691658,163.8869476v-3.5224609h-15.6938477v20.9921875h9.9086914
			c1.7373047,0,3.0761719-0.1865234,4.0166016-0.5585938c0.9399414-0.3720703,1.777832-1.0644531,2.5131836-2.0761719
			c0.7348633-1.0117188,1.1025391-2.2285156,1.1025391-3.6513672c0-1.3837891-0.3652344-2.5917969-1.0957031-3.6230469
			c-0.7299805-1.03125-1.6103516-1.7373047-2.6416016-2.1191406s-2.3291016-0.5722656-3.8950195-0.5722656h-5.6704102v-4.8691406
			H118.691658z M111.5461502,172.2785492c1.6704102,0,2.8520508,0.2216797,3.5444336,0.6650391
			c0.6914062,0.4443359,1.0380859,1.1533203,1.0380859,2.1269531c0,0.6679688-0.1982422,1.2314453-0.5947266,1.6894531
			c-0.3959961,0.4580078-0.8613281,0.7519531-1.3959961,0.8808594s-1.4604492,0.1933594-2.777832,0.1933594h-4.1240234v-5.5556641
			H111.5461502z"/>
		<polygon class="st1" points="85.8571854,174.3400726 85.8571854,160.3644867 81.8913651,160.3644867 81.8913651,181.3566742 
			86.1296463,181.3566742 94.6208572,167.6535492 94.6208572,181.3566742 98.5876541,181.3566742 98.5876541,160.3644867 
			94.3630447,160.3644867 		"/>
		<path class="st1" d="M332.3503418,116.3635101c-1.8310547,0-3.6699219,0-5.6206055,0c0,4.2224121,0,8.3056641,0,12.6166992
			C332.9240723,124.8981781,333.7404785,123.0302582,332.3503418,116.3635101z"/>
		<path class="st1" d="M96.6633377,73.0434418c3.2490234,0,6.3061523,0,9.762207,0c0,23.7250977,0,47.0383301,0,70.4377441
			c3.9604492,0,7.6943359,0,11.7460938,0c0-23.5073242,0-46.8845215,0-70.5603027c3.6054688,0,6.8999023,0,10.1879959,0
			c0-3.7719727,0-7.2390137,0-10.6882324c-10.7011795,0-21.2143631,0-31.6962967,0
			C96.6633377,65.8859711,96.6633377,69.3522797,96.6633377,73.0434418z"/>
		<path class="st1" d="M399.8474121,54.6201019c-0.0556641-0.9787598-0.1030273-1.8200684-0.1542969-2.7197266
			c-0.8945312-0.1965332-1.6870117-0.3708496-2.5317383-0.5563965c-0.0634766-1.0488281-0.1196289-1.9726562-0.184082-3.0397949
			c-0.9179688,0-1.7119141,0-2.5864258,0c-0.1162109,1.1276855-0.2182617,2.1181641-0.3266602,3.171875
			c-0.8461914,0.1298828-1.5742188,0.2416992-2.3378906,0.3588867c-0.1083984,1.045166-0.2021484,1.9484863-0.2954102,2.8505859
			c-0.8950195,0.1254883-1.6191406,0.2270508-2.3935547,0.3356934c0,5.3066406,0,10.435791,0,15.776123
			c4.5444336,0,8.8564453,0,13.1772461,0c0-5.4099121,0-10.6052246,0-15.7702637
			C401.3205566,54.8732758,400.5900879,54.7477875,399.8474121,54.6201019z"/>
		<path class="st1" d="M353.8039551,66.1164398c-1.159668,0.0668945-1.9702148,0.1135254-2.7348633,0.1577148
			c-0.1748047,1.1740723-0.3149414,2.1123047-0.4550781,3.050293c-0.2265625,0.0493164-0.4526367,0.098877-0.6791992,0.1481934
			c-1.4804688-3.1184082-2.9614258-6.2370605-4.6186523-9.7280273c-1.6025391,3.4453125-3.0722656,6.6057129-4.5419922,9.7658691
			c-0.2363281-0.0847168-0.4726562-0.1694336-0.7084961-0.2539062c-0.1816406-0.947998-0.362793-1.8959961-0.5732422-2.9946289
			c-0.8408203,0.0805664-1.5625,0.1494141-2.4399414,0.2333984c0,11.7568359,0,23.3283691,0,35.0131836
			c-0.8696289,0.1572266-1.5908203,0.2871094-2.2817383,0.4121094c0,7.0212402,0,13.9172363,0,20.3166504
			c6.8061523-3.015625,13.6132812-6.0053711,20.3818359-9.079834c0.5429688-0.246582,1.1455078-1.0656738,1.1660156-1.6386719
			c0.1132812-3.1606445,0.0541992-6.3273926,0.0541992-9.6850586c-2.5712891,0.232666-2.8271484-1.1416016-2.7841797-3.1340332
			c0.1606445-7.4719238,0.1650391-14.9475098,0.2119141-22.4216309
			C353.8210449,72.9562836,353.8039551,69.6342621,353.8039551,66.1164398z M346.5383301,102.1213226h-2.6313477v-6.9287109
			h2.6313477V102.1213226z M346.5383301,91.6808929h-2.6313477V84.752182h2.6313477V91.6808929z M346.5383301,74.5270844
			c0,2.3439941,0,4.2856445,0,6.2099609v0.5036621h-2.6313477v-6.9289551h2.6313477V74.5270844z"/>
		<path class="st1" d="M358.4973145,111.8220062c0.230957,0.1455078,0.4619141,0.2910156,0.6928711,0.4365234
			c0.4316406-0.5737305,1.2304688-1.1420898,1.2382812-1.7219238c0.090332-6.3220215,0.0566406-12.645752,0.0566406-19.126709
			c-1.6572266,0-3.0625,0-4.6083984,0c0,2.7521973,0,5.375,0,8.1069336c0.859375,0.1271973,1.6611328,0.2456055,2.6206055,0.3876953
			c0,2.1069336,0,4.067627,0,6.0283203C358.4973145,107.8959808,358.4973145,109.8588715,358.4973145,111.8220062z"/>
		<path class="st1" d="M92.057869,156.6769867c-0.4106445,0.3486328-1.0073242,0.5234375-1.7900391,0.5234375
			s-1.3793945-0.1748047-1.7895508-0.5234375c-0.4111328-0.3476562-0.6494141-0.8613281-0.7163086-1.5390625h-1.9614258
			c0.1142578,1.2988281,0.5703125,2.3173828,1.3671875,3.0576172c0.796875,0.7392578,1.8300781,1.109375,3.1000977,1.109375
			c1.2695312,0,2.3032227-0.3701172,3.1000977-1.109375c0.796875-0.7402344,1.2529297-1.7587891,1.3676758-3.0576172h-1.9619141
			C92.7067947,155.8156586,92.4680252,156.3293304,92.057869,156.6769867z"/>
		<path class="st1" d="M199.2722321,71.7272797c-2.0595703-5.6606445-6.3183594-9.1035156-12.3295898-9.5019531
			c-5.8925781-0.3901367-11.831543-0.0849609-17.9438477-0.0849609c0,27.2722168,0,54.2875977,0,81.3125
			c3.9130859,0,7.6489258,0,11.7099609,0c0-10.8344727,0-21.5107422,0-32.3371582
			c1.9506836,0,3.5766602,0.0563965,5.1977539-0.0097656c6.4638672-0.2644043,11.2539062-3.1779785,13.4589844-9.364502
			C202.9187164,91.7714691,202.8943024,81.6816254,199.2722321,71.7272797z M188.7580719,93.9860687
			c-0.2744141,5.0561523-2.1879883,6.2561035-7.9838867,5.6118164c0-8.9484863,0-17.9165039,0-27.0581055
			c5.6279297-0.4963379,7.6181641,0.8962402,7.9638672,6.2609863
			C189.0632477,83.8444672,189.0319977,88.9367523,188.7580719,93.9860687z"/>
		<path class="st1" d="M189.3288727,163.6721039c1.050293,0,1.9853516,0.3007812,2.8066406,0.9023438
			s1.3842773,1.4511719,1.6899414,2.5488281l4.1958008-0.9589844c-0.4492188-1.890625-1.40625-3.3896484-2.8710938-4.4970703
			c-1.4658203-1.1064453-3.3676758-1.6611328-5.706543-1.6611328c-3.0263672,0-5.4033203,1.0078125-7.1313477,3.0214844
			c-1.7275391,2.0146484-2.5917969,4.6640625-2.5917969,7.9472656c0,1.8710938,0.3007812,3.5566406,0.9023438,5.0546875
			c0.6015625,1.4990234,1.6015625,2.8212891,3,3.9667969s3.3100586,1.71875,5.7348633,1.71875
			c2.3676758,0,4.2910156-0.6015625,5.7709961-1.8046875c1.4794922-1.203125,2.4628906-2.8496094,2.9492188-4.9404297
			l-4.2524414-1.3173828c-0.190918,1.4414062-0.706543,2.546875-1.5463867,3.3154297
			c-0.840332,0.7685547-1.9047852,1.1523438-3.1933594,1.1523438c-1.2509766,0-2.3173828-0.4414062-3.2001953-1.3242188
			c-0.8833008-0.8828125-1.4443359-2.2646484-1.6826172-4.1455078h6.5869141v-3.5224609h-6.5869141
			c0.1621094-1.5654297,0.6796875-2.8662109,1.5537109-3.9023438
			C186.6296539,164.1906586,187.8205719,163.6721039,189.3288727,163.6721039z"/>
		<polygon class="st1" points="150.466568,181.3566742 150.466568,163.9152679 156.6809235,163.9152679 156.6809235,160.3644867 
			139.9987946,160.3644867 139.9987946,163.9152679 146.2277985,163.9152679 146.2277985,181.3566742 		"/>
		<path class="st1" d="M218.294693,72.8520355c-0.0136719,0-0.0273438,0-0.0405273,0l-0.0004883-0.0007324
			c0,0.0151367,0,0.0305176,0,0.0458984c0.0136719,0,0.0273438,0,0.0410156,0
			C218.294693,72.8820648,218.294693,72.8669281,218.294693,72.8520355z"/>
		<path class="st1" d="M241.6472321,62.2385101c-4.1884766,27.1645508-8.3500977,54.1523438-12.5234375,81.2177734
			c3.8203125,0,7.300293,0,10.9125977,0c0.8540039-7.4387207,1.6928711-14.7390137,2.5332031-22.0583496
			c3.4165039,0,6.5541992,0,9.8217773,0c0.9580078,7.4365234,1.8974609,14.7316895,2.8447266,22.0864258
			c3.8993988,0,7.5595551,0,11.4296722,0c-4.3237305-27.213623-8.6220703-54.2683105-12.9081879-81.2458496
			C249.5217438,62.2385101,245.6135406,62.2385101,241.6472321,62.2385101z M243.5700836,110.9833832
			c1.1362305-11.6838379,2.265625-23.2961426,3.4506836-35.4802246c1.3959961,12.0761719,2.7304688,23.6206055,4.1010742,35.4802246
			C248.5886383,110.9833832,246.2180328,110.9833832,243.5700836,110.9833832z"/>
		<path class="st1" d="M278.6120605,123.6110687c-0.3666992,6.951416-1.7524414,8.4326172-8.2719727,10.0043945
			c0,2.9311523-0.0957031,5.9284668,0.0825195,8.9094238c0.034668,0.5834961,1.0537109,1.4404297,1.75,1.6000977
			c6.1352539,1.4067383,12.1655273-1.9116211,14.3300781-8.4555664c1.3300781-4.0212402,2.1303711-8.3483887,2.3515625-12.5808105
			c0.6235352-11.920166,0.8642578-23.8613281,1.1723633-35.7961426c0.1206055-4.6811523,0.0195312-9.3681641,0.0195312-14.1384277
			c2.9238281,0,5.1225586,0,7.7480469,0c0,23.6225586,0,46.9575195,0,70.3095703c3.8920898,0,7.5473633,0,11.2841797,0
			c0-27.1611328,0-54.1706543,0-81.246582c-9.4882812,0-18.8012695,0-28.7602539,0
			c0,7.5327148,0.1889648,14.907959-0.0415039,22.2700195C279.8684082,97.533432,279.2990723,110.5764008,278.6120605,123.6110687z"
			/>
		<path class="st1" d="M264.7487793,185.9387054v-8.1044922h-1.8466797v-17.4697266h-14.5058441v2.2197266
			c0,3.6279297-0.1386719,6.6269531-0.4150391,8.9990234c-0.2773438,2.3730469-0.8496094,4.4560547-1.71875,6.2509766h-1.7753906
			v8.1044922h3.5224609v-4.5820312h13.2167816v4.5820312H264.7487793z M258.6774902,177.8342133h-7.9755707
			c1.1547852-2.9208984,1.7324219-7.5703125,1.7324219-13.9472656h6.2431488V177.8342133z"/>
		<path class="st1" d="M273.5407715,175.4289398c-0.3911133,1.1835938-0.7993164,1.9541016-1.2236328,2.3125
			c-0.425293,0.3574219-1.1293945,0.5361328-2.1123047,0.5361328c-0.4873047,0-1.03125-0.0185547-1.6328125-0.0566406v3.1503906
			c0.706543,0.1621094,1.6850586,0.2431641,2.9355469,0.2431641c1.2695312,0,2.3056641-0.4511719,3.1074219-1.3535156
			c0.8017578-0.9013672,1.5898438-2.2167969,2.362793-3.9443359l7.0883789-15.9521484h-4.4248047l-4.1816406,10.8974609
			l-4.8969727-10.8974609h-4.7397461L273.5407715,175.4289398z"/>
		<path class="st1" d="M232.200943,178.2775726c-0.4868164,0-1.0307617-0.0185547-1.6323242-0.0566406v3.1503906
			c0.706543,0.1621094,1.6850586,0.2431641,2.9355469,0.2431641c1.2695312,0,2.3051758-0.4511719,3.1069336-1.3535156
			c0.8022461-0.9013672,1.5898438-2.2167969,2.3632812-3.9443359l7.0878906-15.9521484h-4.4248047l-4.1811523,10.8974609
			l-4.8969727-10.8974609h-4.7402344l7.7182617,15.0644531c-0.3911133,1.1835938-0.7993164,1.9541016-1.2241211,2.3125
			C233.888443,178.0988617,233.1843414,178.2775726,232.200943,178.2775726z"/>
		<path class="st1" d="M294.9343262,163.6721039c1.0498047,0,1.9853516,0.3007812,2.8066406,0.9023438
			c0.8203125,0.6015625,1.3837891,1.4511719,1.6894531,2.5488281l4.1953125-0.9589844
			c-0.4487305-1.890625-1.4052734-3.3896484-2.8710938-4.4970703c-1.465332-1.1064453-3.3671875-1.6611328-5.7060547-1.6611328
			c-3.0263672,0-5.4033203,1.0078125-7.1308594,3.0214844c-1.7280273,2.0146484-2.5917969,4.6640625-2.5917969,7.9472656
			c0,1.8710938,0.3007812,3.5566406,0.9018555,5.0546875c0.6015625,1.4990234,1.6010742,2.8212891,3,3.9667969
			c1.3984375,1.1455078,3.3100586,1.71875,5.7348633,1.71875c2.3671875,0,4.2910156-0.6015625,5.7705078-1.8046875
			s2.4628906-2.8496094,2.9501953-4.9404297l-4.2529297-1.3173828c-0.1914062,1.4414062-0.706543,2.546875-1.546875,3.3154297
			c-0.8398438,0.7685547-1.9042969,1.1523438-3.1928711,1.1523438c-1.2504883,0-2.3178711-0.4414062-3.2006836-1.3242188
			s-1.4438477-2.2646484-1.6826172-4.1455078h6.5869141v-3.5224609h-6.5869141
			c0.1625977-1.5654297,0.6806641-2.8662109,1.5537109-3.9023438
			C292.2351074,164.1906586,293.4255371,163.6721039,294.9343262,163.6721039z"/>
		<path class="st1" d="M66.6980057,160.3644867L58.52174,181.3566742h4.496582l1.7324181-4.7685547h8.3911133l1.8325195,4.7685547
			h4.6113281l-8.4057617-20.9921875H66.6980057z M66.0534744,173.0510101l2.8354492-7.7890625l2.8925781,7.7890625H66.0534744z"/>
		<path class="st1" d="M235.5061188,62.2319183c-5.7963867,0-11.3974609,0-17.2114258,0c0,3.6604004,0,7.140625,0,10.6201172
			c5.7451172,0.0007324,11.4902344,0.0007324,17.2114258,0.0007324
			C235.5061188,69.123764,235.5061188,65.6633148,235.5061188,62.2319183z"/>
		<path class="st1" d="M409.526123,83.5778656c0,3.6191406,0,7.1738281,0,10.5898438
			c2.0073242,0.9370117,3.90625,1.8234863,5.7998047,2.7075195C416.623291,89.2158051,415.5544434,86.720932,409.526123,83.5778656z
			"/>
		<path class="st1" d="M206.7458649,143.3952484c3.9414062,0,7.7333984,0,11.6113281,0
			c0-15.6762695,0.0112305-31.1333008-0.0048828-46.590332c-0.0078125-7.9692383-0.0639648-15.9384766-0.0986328-23.9077148
			c-3.8115234,0-7.6235352,0-11.5078125,0C206.7458649,96.7077484,206.7458649,120.0278168,206.7458649,143.3952484z"/>
		<path class="st1" d="M206.9299469,62.2477875c0,2.9997559,0,5.7817383,0,8.5617676c3.1279297,0,6.0922852,0,9.0737305,0
			c0-2.9768066,0-5.8151855,0-8.5617676C212.8205719,62.2477875,209.8703766,62.2477875,206.9299469,62.2477875z"/>
		<path class="st1" d="M225.3855133,163.8869476v-3.5224609h-15.6943359v20.9921875h9.9091797
			c1.7373047,0,3.0761719-0.1865234,4.0166016-0.5585938c0.9399414-0.3720703,1.7773438-1.0644531,2.5126953-2.0761719
			s1.1025391-2.2285156,1.1025391-3.6513672c0-1.3837891-0.3652344-2.5917969-1.0952148-3.6230469
			s-1.6108398-1.7373047-2.6420898-2.1191406c-1.0307617-0.3818359-2.3291016-0.5722656-3.8945312-0.5722656h-5.6708984v-4.8691406
			H225.3855133z M218.2400055,172.2785492c1.6699219,0,2.8515625,0.2216797,3.5439453,0.6650391
			c0.6918945,0.4443359,1.0380859,1.1533203,1.0380859,2.1269531c0,0.6679688-0.1982422,1.2314453-0.5942383,1.6894531
			s-0.8618164,0.7519531-1.3959961,0.8808594c-0.5351562,0.1289062-1.4609375,0.1933594-2.7783203,0.1933594h-4.1240234v-5.5556641
			H218.2400055z"/>
		<path class="st1" d="M383.298584,181.3566742v-20.9921875h-8.9208984c-2.1000977,0-3.6777344,0.1699219-4.7324219,0.5087891
			s-1.9042969,1.0019531-2.5488281,1.9902344c-0.6445312,0.9873047-0.9667969,2.1210938-0.9667969,3.4003906
			c0,1.4707031,0.4345703,2.7333984,1.3037109,3.7880859c0.8681641,1.0546875,2.28125,1.734375,4.2382812,2.0400391
			c-0.9072266,0.515625-1.6611328,1.1005859-2.2626953,1.7539062c-0.6015625,0.6542969-1.4082031,1.7929688-2.4199219,3.4150391
			l-2.5629883,4.0957031h5.0688477l3.0644531-4.5673828c1.3266602-1.9951172,2.2646484-3.1933594,2.8134766-3.5947266
			c0.5488281-0.4003906,1.4916992-0.6015625,2.828125-0.6015625h0.859375v8.7636719H383.298584z M375.9245605,169.2424164
			c-1.7470703,0-2.9047852-0.0527344-3.4726562-0.1572266c-0.5683594-0.1054688-1.0361328-0.375-1.4033203-0.8095703
			c-0.3676758-0.4335938-0.5512695-1.0185547-0.5512695-1.7539062c0-0.7060547,0.190918-1.2792969,0.5727539-1.7177734
			c0.3818359-0.4394531,0.8378906-0.6972656,1.3671875-0.7734375c0.5302734-0.0761719,1.6347656-0.1152344,3.3154297-0.1152344
			h3.3076172v5.3271484H375.9245605z"/>
		<polygon class="st1" points="536.7590332,181.3566742 536.7590332,160.3644867 532.5202637,160.3644867 532.5202637,168.627182 
			524.2155762,168.627182 524.2155762,160.3644867 519.9768066,160.3644867 519.9768066,181.3566742 524.2155762,181.3566742 
			524.2155762,172.1779633 532.5202637,172.1779633 532.5202637,181.3566742 		"/>
		<path class="st1" d="M433.814209,70.7385101c3.1777344,0,6.1977539,0,9.2133789,0c0-2.9238281,0-5.6403809,0-8.5236816
			c-3.2514648,0-6.2075195,0-9.2133789,0C433.814209,65.1764984,433.814209,67.9557953,433.814209,70.7385101z"/>
		<path class="st1" d="M36.093029,70.6823578c3.190918,0,6.2075195,0,9.2592773,0c0-2.9975586,0-5.7875977,0-8.7443848
			c-3.2724609,0-6.2197266,0-9.2592773,0C36.093029,64.9772797,36.093029,67.8312836,36.093029,70.6823578z"/>
		<path class="st1" d="M404.5915527,163.6291351c1.1264648,0,2.0839844,0.3154297,2.8710938,0.9453125
			c0.7875977,0.6298828,1.3056641,1.4892578,1.5537109,2.5771484l4.1953125-1.0019531
			c-0.4770508-1.6796875-1.1933594-2.96875-2.1474609-3.8662109c-1.6040039-1.5175781-3.6899414-2.2773438-6.2578125-2.2773438
			c-2.9404297,0-5.3125,0.9667969-7.1166992,2.9003906c-1.8041992,1.9326172-2.706543,4.6464844-2.706543,8.140625
			c0,3.3027344,0.8974609,5.90625,2.6923828,7.8105469s4.0859375,2.8574219,6.8730469,2.8574219
			c2.2529297,0,4.1123047-0.5566406,5.5776367-1.6689453c1.465332-1.1113281,2.5131836-2.8134766,3.1430664-5.1044922
			l-4.109375-1.3027344c-0.3535156,1.5371094-0.9360352,2.6630859-1.7470703,3.3789062
			c-0.8115234,0.7158203-1.7807617,1.0742188-2.9072266,1.0742188c-1.5273438,0-2.7685547-0.5634766-3.7226562-1.6894531
			c-0.9550781-1.1269531-1.4321289-3.0166016-1.4321289-5.6708984c0-2.5009766,0.484375-4.3105469,1.4536133-5.4267578
			C401.7731934,164.1877289,403.0358887,163.6291351,404.5915527,163.6291351z"/>
		<path class="st1" d="M511.092041,62.139389c-0.1044922,1.2214355-0.2299805,2.2421875-0.2734375,3.2666016
			c-0.4116211,9.6105957-0.7475586,19.2246094-1.2265625,28.8317871
			c-0.5703125,11.4389648-2.2675781,22.7036133-5.6538086,33.6750488c-0.8422852,2.7285156-1.206543,6.0236816-5.5078125,4.7265625
			c0,3.8037109,0,7.2714844,0,10.7243652c15.5058594,0,30.8344727,0,46.1123047,0c0-3.6555176,0-7.1242676,0-10.7644043
			c-2.0708008,0-3.9350586,0-6.1015625,0c0-23.5756836,0-46.973877,0-70.4599609
			C529.2185059,62.139389,520.3044434,62.139389,511.092041,62.139389z M526.9040527,132.594223
			c-4.4038086,0-8.5917969,0-13.043457,0c5.8183594-19.4182129,5.7783203-39.402832,6.6796875-59.4138184
			c2.1586914,0,4.1743164,0,6.3637695,0C526.9040527,92.9567719,526.9040527,112.6389008,526.9040527,132.594223z"/>
		<path class="st1" d="M56.9323845,62.2255707c0,27.1794434,0,54.1813965,0,81.1738281c3.902832,0,7.6201134,0,11.5790977,0
			c0-12.5405273,0-24.8676758,0-37.2128906c3.6425781,0,7.03125,0,10.6430664,0c0,12.5021973,0,24.8339844,0,37.2958984
			c3.9648438,0,7.7050781,0,11.6103516,0c0-27.244873,0-54.25,0-81.2983398c-3.9130859,0-7.6518555,0-11.6499023,0
			c0,11.079834,0,22.0275879,0,33.0048828c-3.7114258,0-7.1577148,0-10.809082,0c0-11.1210938,0-21.9970703,0-32.9633789
			C64.370369,62.2255707,60.6496696,62.2255707,56.9323845,62.2255707z"/>
		<path class="st1" d="M517.1130371,185.9387054v-8.1044922h-1.847168v-17.4697266H500.760498v2.2197266
			c0,3.6279297-0.1386719,6.6269531-0.4155273,8.9990234c-0.2768555,2.3730469-0.8496094,4.4560547-1.7182617,6.2509766h-1.7753906
			v8.1044922h3.5224609v-4.5820312h13.2167969v4.5820312H517.1130371z M511.041748,177.8342133h-7.9760742
			c1.1547852-2.9208984,1.7329102-7.5703125,1.7329102-13.9472656h6.2431641V177.8342133z"/>
		<path class="st1" d="M481.4147949,160.8371429c-0.9833984,0.4101562-1.8876953,1.0410156-2.7133789,1.8896484
			c-0.8256836,0.8505859-1.4775391,1.8095703-1.9545898,2.8789062c-0.6396484,1.4511719-0.9594727,3.2451172-0.9594727,5.3837891
			c0,3.3417969,0.9213867,5.9638672,2.7636719,7.8681641s4.324707,2.8574219,7.4458008,2.8574219
			c3.0834961,0,5.546875-0.9570312,7.3886719-2.8710938c1.8427734-1.9140625,2.7636719-4.5654297,2.7636719-7.9550781
			c0-3.4169922-0.9282227-6.0849609-2.7851562-8.0039062c-1.8564453-1.9189453-4.3310547-2.8789062-7.4243164-2.8789062
			C484.2312012,160.0060883,482.7224121,160.283432,481.4147949,160.8371429z M490.1853027,165.4045258
			c1.0546875,1.1845703,1.5825195,2.9785156,1.5825195,5.3847656c0,2.4335938-0.5419922,4.2597656-1.6254883,5.4765625
			c-1.0834961,1.2177734-2.4697266,1.8261719-4.159668,1.8261719s-3.0834961-0.6132812-4.1811523-1.8398438
			s-1.6464844-3.0292969-1.6464844-5.40625c0-2.4150391,0.5341797-4.2216797,1.6035156-5.4199219
			c1.0693359-1.1972656,2.4775391-1.796875,4.2241211-1.796875
			C487.7297363,163.6291351,489.1306152,164.220932,490.1853027,165.4045258z"/>
		<path class="st1" d="M442.3659668,160.8371429c-0.9833984,0.4101562-1.8876953,1.0410156-2.7133789,1.8896484
			c-0.8256836,0.8505859-1.4775391,1.8095703-1.9545898,2.8789062c-0.6396484,1.4511719-0.9594727,3.2451172-0.9594727,5.3837891
			c0,3.3417969,0.9213867,5.9638672,2.7636719,7.8681641s4.324707,2.8574219,7.4458008,2.8574219
			c3.0834961,0,5.546875-0.9570312,7.3886719-2.8710938c1.8427734-1.9140625,2.7636719-4.5654297,2.7636719-7.9550781
			c0-3.4169922-0.9282227-6.0849609-2.7851562-8.0039062c-1.8564453-1.9189453-4.3310547-2.8789062-7.4243164-2.8789062
			C445.182373,160.0060883,443.673584,160.283432,442.3659668,160.8371429z M451.1364746,165.4045258
			c1.0546875,1.1845703,1.5825195,2.9785156,1.5825195,5.3847656c0,2.4335938-0.5419922,4.2597656-1.6254883,5.4765625
			c-1.0834961,1.2177734-2.4697266,1.8261719-4.159668,1.8261719s-3.0834961-0.6132812-4.1811523-1.8398438
			s-1.6464844-3.0292969-1.6464844-5.40625c0-2.4150391,0.5341797-4.2216797,1.6035156-5.4199219
			c1.0693359-1.1972656,2.4775391-1.796875,4.2241211-1.796875
			C448.6809082,163.6291351,450.0817871,164.220932,451.1364746,165.4045258z"/>
		<polygon class="st1" points="460.623291,181.3566742 464.8620605,181.3566742 464.8620605,163.8869476 474.8425293,163.8869476 
			474.8425293,160.3644867 460.623291,160.3644867 		"/>
		<polygon class="st1" points="56.4455681,181.3566742 56.4455681,160.3644867 50.0876579,160.3644867 46.3220329,174.6838226 
			42.5124626,160.3644867 36.1696892,160.3644867 36.1696892,181.3566742 40.1071892,181.3566742 40.1071892,164.8322601 
			44.2595329,181.3566742 48.3405876,181.3566742 52.5075798,164.8322601 52.5075798,181.3566742 		"/>
		<path class="st1" d="M36.0935173,143.5182953c3.965332,0,7.7250977,0,11.6235352,0c0-23.4777832,0-46.8581543,0-70.3237305
			c-3.9775391,0-7.7841797,0-11.6235352,0C36.0935173,96.733139,36.0935173,120.0991058,36.0935173,143.5182953z"/>
		<path class="st1" d="M487.6179199,99.611557c-0.4907227-0.3508301-0.6298828-0.7111816-0.6967773-1.0847168
			c-2.050293-11.4833984-4.0742188-22.9714355-6.1821289-34.4443359c-0.1347656-0.7348633-0.8857422-1.9130859-1.3911133-1.9345703
			c-3.8198242-0.1635742-7.6503906-0.0893555-11.6601562-0.0893555c0.1918945,1.026123,0.2822266,1.699707,0.4462891,2.3549805
			c4.6489258,18.5490723,9.2998047,37.0976562,13.9648438,55.6428223c1.0107422,4.0175781-0.184082,7.6811523-2.1318359,11.0322266
			c-0.6533203,1.1235352-2.4155273,1.9072266-3.8105469,2.2165527c-1.6992188,0.3769531-3.5458984,0.0895996-5.6079102,0.0895996
			c0,1.4790039,0.0009766,2.9179688,0,4.3574219c-0.0053711,6.5788574-0.0058594,6.4990234,6.7236328,6.4814453
			c5.9316406-0.0153809,10.0102539-2.7109375,12.1875-8.1452637c1.0800781-2.6955566,2.0688477-5.4816895,2.637207-8.3195801
			c3.3505859-16.7321777,6.5673828-33.4912109,9.8242188-50.2419434c0.9882812-5.083252,1.9619141-10.1696777,2.9594727-15.3415527
			c-3.909668,0-7.4887695,0-11.2055664,0C491.6442871,74.7336273,489.6311035,87.1725922,487.6179199,99.611557z"/>
		<path class="st1" d="M325.0622559,181.3566742h9.9086914c1.7563477,0,3.1000977-0.1787109,4.0307617-0.5371094
			c0.9306641-0.3574219,1.7587891-1.0380859,2.484375-2.0400391c0.7255859-1.0029297,1.0883789-2.2197266,1.0883789-3.6513672
			c0-1.7470703-0.5991211-3.2460938-1.796875-4.4970703c-1.1982422-1.25-3.1337891-1.875-5.8066406-1.875h-5.6704102v-8.3916016
			h-4.2382812V181.3566742z M329.3005371,172.2785492h4.3100586c1.6704102,0,2.8520508,0.2236328,3.5444336,0.6728516
			c0.6914062,0.4482422,1.0380859,1.1552734,1.0380859,2.1191406c0,0.6679688-0.203125,1.2314453-0.6088867,1.6894531
			s-0.8662109,0.7519531-1.3818359,0.8808594c-0.5151367,0.1289062-1.4414062,0.1933594-2.777832,0.1933594h-4.1240234V172.2785492z
			"/>
		<polygon class="st1" points="159.4304352,160.3644867 159.4304352,181.3566742 163.6687164,181.3566742 163.6687164,172.1779633 
			171.9738922,172.1779633 171.9738922,181.3566742 176.2126617,181.3566742 176.2126617,160.3644867 171.9738922,160.3644867 
			171.9738922,168.627182 163.6687164,168.627182 163.6687164,160.3644867 		"/>
		<rect x="541.0119629" y="160.3644867" class="st1" width="4.2387695" height="20.9921875"/>
		<path class="st1" d="M445.1350098,72.9008636c0.0131836,0,0.0268555,0,0.0405273,0l-0.0405273-0.045166
			C445.1350098,72.8708344,445.1350098,72.8857269,445.1350098,72.9008636z"/>
		<path class="st1" d="M354.1872559,163.6291351c1.1264648,0,2.0839844,0.3154297,2.8710938,0.9453125
			c0.7875977,0.6298828,1.3056641,1.4892578,1.5537109,2.5771484l4.1953125-1.0019531
			c-0.4770508-1.6796875-1.1933594-2.96875-2.1474609-3.8662109c-1.6040039-1.5175781-3.6899414-2.2773438-6.2578125-2.2773438
			c-2.9404297,0-5.3125,0.9667969-7.1166992,2.9003906c-1.8041992,1.9326172-2.706543,4.6464844-2.706543,8.140625
			c0,3.3027344,0.8974609,5.90625,2.6923828,7.8105469s4.0859375,2.8574219,6.8730469,2.8574219
			c2.2529297,0,4.1123047-0.5566406,5.5776367-1.6689453c1.465332-1.1113281,2.5131836-2.8134766,3.1430664-5.1044922
			l-4.109375-1.3027344c-0.3535156,1.5371094-0.9360352,2.6630859-1.7470703,3.3789062
			c-0.8115234,0.7158203-1.7807617,1.0742188-2.9072266,1.0742188c-1.5273438,0-2.7685547-0.5634766-3.7226562-1.6894531
			c-0.9550781-1.1269531-1.4321289-3.0166016-1.4321289-5.6708984c0-2.5009766,0.484375-4.3105469,1.4536133-5.4267578
			C351.3688965,164.1877289,352.6315918,163.6291351,354.1872559,163.6291351z"/>
		<polygon class="st1" points="316.026123,181.3566742 316.026123,163.9152679 322.2409668,163.9152679 322.2409668,160.3644867 
			305.5593262,160.3644867 305.5593262,163.9152679 311.7878418,163.9152679 311.7878418,181.3566742 		"/>
		<path class="st1" d="M433.9118652,143.5222015c6.1142578,0,12.0424805,0.2861328,17.9306641-0.0786133
			c6.1386719-0.3803711,10.8149414-3.4699707,12.8066406-9.5170898c3.1069336-9.4338379,3.347168-19.0495605,0.6938477-28.6242676
			c-1.7182617-6.1999512-6.1225586-9.5268555-12.4443359-10.2932129c-2.5083008-0.3039551-5.0415039-0.3986816-7.7636719-0.6037598
			c0-7.3071289,0-14.4060059,0-21.5043945c-3.7329102,0-7.4663086,0-11.2231445,0
			C433.9118652,96.7199554,433.9118652,120.0883636,433.9118652,143.5222015z M445.3532715,104.8849945
			c5.1870117-1.0341797,8.0541992,0.5014648,8.5351562,5.4421387c0.5522461,5.6789551,0.6679688,11.4638672,0.269043,17.1533203
			c-0.3632812,5.1835938-3.1230469,6.7797852-8.8041992,6.0322266
			C445.3532715,123.8464203,445.3532715,114.3532562,445.3532715,104.8849945z"/>
		<path class="st1" d="M161.2282867,72.9557953c0-3.8071289,0-7.2753906,0-10.7578125c-9.0839844,0-17.9853516,0-26.9716797,0
			c0,27.1594238,0,54.1689453,0,81.2285156c9.4707031,0,18.7749023,0,28.0761719,0c0-3.6584473,0-7.1254883,0-10.7880859
			c-5.5800781,0-10.965332,0-16.4506836,0c0-8.9121094,0-17.6218262,0-26.6962891c3.7832031,0,7.4135742,0,10.9365234,0
			c0-3.6723633,0-6.9755859,0-10.5200195c-3.7626953,0-7.3295898,0-10.9414062,0c0-7.5942383,0-14.9379883,0-22.4663086
			C150.9953766,72.9557953,155.9558258,72.9557953,161.2282867,72.9557953z"/>
		<path class="st1" d="M464.1726074,62.2306976c-6.3901367,0-12.5883789,0-18.9970703,0c0,3.6611328,0,7.1437988,0,10.6254883
			c6.3530273,0.0007324,12.7055664,0.0007324,18.9970703,0.0007324
			C464.1726074,69.1384125,464.1726074,65.6760101,464.1726074,62.2306976z"/>
		<path class="st1" d="M445.135498,72.8561859l0.0400391,0.0446777c0-0.0148926,0-0.0297852,0-0.0446777
			C445.1618652,72.8561859,445.1491699,72.8561859,445.135498,72.8561859z"/>
		<path class="st1" d="M416.9919434,160.3644867v20.9921875h9.9091797c1.7563477,0,3.1000977-0.1787109,4.03125-0.5371094
			c0.9306641-0.3574219,1.7587891-1.0380859,2.484375-2.0400391c0.7250977-1.0029297,1.0878906-2.2197266,1.0878906-3.6513672
			c0-1.7470703-0.5991211-3.2460938-1.796875-4.4970703c-1.1982422-1.25-3.1337891-1.875-5.8066406-1.875h-5.6704102v-8.3916016
			H416.9919434z M425.5407715,172.2785492c1.6704102,0,2.8515625,0.2236328,3.5439453,0.6728516
			c0.6923828,0.4482422,1.0380859,1.1552734,1.0380859,2.1191406c0,0.6679688-0.2026367,1.2314453-0.6083984,1.6894531
			s-0.8662109,0.7519531-1.3818359,0.8808594s-1.4414062,0.1933594-2.777832,0.1933594h-4.1240234v-5.5556641H425.5407715z"/>
	</g>
</g>
</svg>
